# xmcd
#
# Track frame offsets:
#	150
#	12150
#	23795
#	54070
#	60480
#	91670
#	109960
#	138535
#	159085
#	190060
#	211735
#
# Disc length: 3075 seconds
#
# Revision: 0
# Processed by: cddbd v1.5.1PL0 Copyright (c) Steve Scherf et al.
# Submitted via: EasyCDDAExtractor 8.0.2.1
#
DISCID=7c0c010b
DTITLE=Ozzy Osbourne - Brendan Byrne Arena East Rutherford 08-12-88 Disc 2
DYEAR=1988
DGENRE=Hard Rock
TTITLE0=War Pigs
TTITLE1=Tattoed Dancer Reprise
TTITLE2=Drum Solo
TTITLE3=Tattoed Dancer Reprise
TTITLE4=Fire In The Sky
TTITLE5=Miracle Man
TTITLE6=Suicide Solution
TTITLE7=Iron Man
TTITLE8=Crazy Train
TTITLE9=Bark At The Moon
TTITLE10=Paranoid
EXTD=
EXTT0=
EXTT1=
EXTT2=
EXTT3=
EXTT4=
EXTT5=
EXTT6=
EXTT7=
EXTT8=
EXTT9=
EXTT10=
PLAYORDER=
